<svg width="192" height="60" viewBox="0 0 192 60" fill="none" xmlns="http://www.w3.org/2000/svg">
<path d="M39.6264 17.1578C40.4111 16.0327 41.3678 15.138 42.4964 14.4737C43.625 13.7865 44.7989 13.4443 46.0178 13.4472L45.9982 21.6237L43.8247 21.6185C42.3757 21.615 41.3056 21.8654 40.6143 22.3697C39.9461 22.8741 39.6105 23.7703 39.6074 25.0583L39.5882 33.0278L31.9292 33.0093L31.9761 13.5514L39.635 13.5698L39.6264 17.1578ZM69.3094 23.1979C69.3081 23.7269 69.2724 24.2328 69.2023 24.7156L56.8858 24.6859C56.9968 26.3652 57.6962 27.2064 58.9842 27.2095C59.8122 27.2115 60.4111 26.8334 60.781 26.0753L68.8884 26.0948C68.6091 27.4742 68.0196 28.7148 67.12 29.8166C66.2434 30.8955 65.1258 31.7553 63.7672 32.396C62.4318 33.0138 60.959 33.3208 59.349 33.3169C57.417 33.3122 55.693 32.9056 54.1769 32.0969C52.6839 31.2883 51.5137 30.1355 50.6663 28.6385C49.8419 27.1185 49.4322 25.3465 49.4371 23.3225C49.4419 21.2985 49.8602 19.54 50.6918 18.047C51.5464 16.531 52.7222 15.3724 54.2192 14.571C55.7391 13.7696 57.4651 13.3713 59.3971 13.3759C61.329 13.3806 63.0416 13.7872 64.5346 14.5958C66.0507 15.3815 67.221 16.5113 68.0455 17.9853C68.8929 19.4593 69.3142 21.1969 69.3094 23.1979ZM61.5513 21.3507C61.5529 20.7067 61.3471 20.2232 60.9338 19.9002C60.5207 19.5542 60.0036 19.3804 59.3826 19.3789C58.0256 19.3757 57.2305 20.0292 56.9974 21.3397L61.5513 21.3507ZM100.148 13.5776C102.632 13.5836 104.551 14.3357 105.905 15.834C107.281 17.3323 107.966 19.358 107.96 21.911L107.933 33.1924L100.308 33.1741L100.333 22.8586C100.335 22.0306 100.084 21.386 99.5788 20.9248C99.0969 20.4406 98.442 20.1975 97.614 20.1955C96.763 20.1935 96.0954 20.4334 95.6113 20.9152C95.1272 21.374 94.8841 22.0175 94.8821 22.8455L94.8573 33.1609L87.2328 33.1426L87.2576 22.8271C87.2596 21.9991 87.0082 21.3545 86.5033 20.8933C86.0215 20.4091 85.3665 20.166 84.5385 20.164C83.6876 20.162 83.02 20.4019 82.5358 20.8837C82.0517 21.3425 81.8087 21.986 81.8067 22.814L81.7818 33.1294L74.1228 33.111L74.1697 13.653L81.8287 13.6715L81.8224 16.2935C82.3764 15.4668 83.1255 14.8016 84.0697 14.2979C85.0369 13.7942 86.1645 13.5439 87.4525 13.547C88.8555 13.5504 90.0967 13.8639 91.1762 14.4875C92.2558 15.0881 93.1162 15.9412 93.7576 17.0467C94.473 16.0365 95.3835 15.2106 96.4891 14.5693C97.5947 13.905 98.8145 13.5744 100.148 13.5776ZM117.58 12.2051C116.246 12.2019 115.178 11.8428 114.374 11.1279C113.571 10.4129 113.171 9.51498 113.173 8.43398C113.176 7.32998 113.581 6.42245 114.387 5.71139C115.194 4.97734 116.265 4.61191 117.599 4.61513C118.91 4.61829 119.967 4.98883 120.77 5.72677C121.573 6.44171 121.973 7.35117 121.971 8.45517C121.968 9.53617 121.564 10.4322 120.757 11.1433C119.95 11.8543 118.891 12.2083 117.58 12.2051ZM121.371 13.7667L121.325 33.2247L113.666 33.2062L113.713 13.7483L121.371 13.7667ZM147.842 13.8305L147.795 33.2885L140.136 33.27L140.143 30.303C139.543 31.2216 138.736 31.9671 137.723 32.5397C136.733 33.1123 135.547 33.397 134.167 33.3936C131.936 33.3883 130.19 32.6365 128.929 31.1385C127.69 29.6405 127.074 27.615 127.08 25.062L127.108 13.7806L134.732 13.7989L134.707 24.1144C134.705 25.0344 134.945 25.771 135.426 26.3241C135.931 26.8544 136.598 27.1205 137.426 27.1225C138.277 27.1245 138.944 26.8616 139.428 26.3338C139.913 25.7829 140.156 25.0475 140.158 24.1275L140.183 13.8121L147.842 13.8305ZM179.695 13.7692C182.179 13.7752 184.098 14.5274 185.451 16.0256C186.827 17.5239 187.513 19.5496 187.506 22.1026L187.479 33.3841L179.855 33.3657L179.88 23.0502C179.882 22.2222 179.63 21.5776 179.125 21.1164C178.643 20.6322 177.989 20.3892 177.161 20.3872C176.31 20.3851 175.642 20.625 175.158 21.1068C174.674 21.5657 174.431 22.2091 174.429 23.0371L174.404 33.3526L166.779 33.3342L166.804 23.0187C166.806 22.1907 166.555 21.5461 166.05 21.0849C165.568 20.6007 164.913 20.3577 164.085 20.3557C163.234 20.3536 162.566 20.5935 162.082 21.0753C161.598 21.5342 161.355 22.1776 161.353 23.0056L161.328 33.3211L153.669 33.3026L153.716 13.8447L161.375 13.8631L161.369 16.4851C161.923 15.6584 162.672 14.9932 163.616 14.4895C164.583 13.9858 165.711 13.7356 166.999 13.7387C168.402 13.742 169.643 14.0555 170.723 14.6791C171.802 15.2797 172.663 16.1328 173.304 17.2384C174.02 16.2281 174.93 15.4023 176.036 14.7609C177.141 14.0966 178.361 13.766 179.695 13.7692Z" fill="white"/>
<path d="M0.124701 7.42085L0.106824 14.8417L1.25462 14.7353L14.2386 7.78225L20.5411 11.5079L20.5225 19.2561L10.5252 24.9068L10.7369 32.3282L11.4251 32.439L28.087 23.0939L27.8946 7.70601L14.372 0.034279L13.3393 0.031791L0.124701 7.42085Z" fill="white"/>
<path d="M0.468204 19.1389L0.967466 38.002L1.40323 38.003L1.94819 37.8947L7.94888 34.1807L7.86688 22.9949L8.19502 22.4474L17.2503 16.9861L17.7971 16.1102L17.9126 13.3689L14.1058 10.8375L13.779 10.8367L1.34237 18.0444L0.468204 19.1389Z" fill="white"/>
<path d="M73.8066 46.5274C73.8055 46.9741 73.7012 47.3805 73.4936 47.7467C73.2861 48.1062 72.9788 48.3921 72.5716 48.6045C72.1711 48.8168 71.6841 48.9223 71.1108 48.9209L70.2308 48.9188L70.2254 51.1688L68.0054 51.1635L68.0225 44.0835L71.1224 44.0909C71.9891 44.093 72.6519 44.3146 73.1108 44.7557C73.5765 45.1969 73.8084 45.7874 73.8066 46.5274ZM70.865 47.1703C71.325 47.1714 71.5555 46.9553 71.5566 46.522C71.5576 46.0887 71.3282 45.8714 70.8682 45.8703L70.2382 45.8688L70.235 47.1688L70.865 47.1703ZM77.9493 51.2574C77.2827 51.2558 76.6697 51.0977 76.1105 50.783C75.5579 50.4683 75.1189 50.0339 74.7936 49.4798C74.4683 48.9257 74.3065 48.302 74.3081 47.6086C74.3098 46.9153 74.4746 46.2924 74.8026 45.7398C75.1306 45.1873 75.5717 44.7583 76.1257 44.453C76.6865 44.141 77.3002 43.9858 77.9669 43.9874C78.6335 43.989 79.2431 44.1472 79.7957 44.4618C80.3483 44.7698 80.7839 45.2009 81.1026 45.755C81.4279 46.3091 81.5898 46.9328 81.5881 47.6262C81.5864 48.3195 81.4216 48.9424 81.0936 49.495C80.7723 50.0475 80.3312 50.4798 79.7705 50.7918C79.2164 51.1038 78.6093 51.259 77.9493 51.2574ZM77.9543 49.1874C78.3943 49.1885 78.7347 49.0493 78.9753 48.7699C79.216 48.4838 79.337 48.1007 79.3381 47.6207C79.3393 47.1341 79.2202 46.7505 78.9809 46.4699C78.7416 46.1826 78.4019 46.0385 77.9619 46.0374C77.5153 46.0364 77.1716 46.1789 76.9309 46.4649C76.6902 46.7444 76.5693 47.1274 76.5681 47.6141C76.567 48.0941 76.686 48.4777 76.9253 48.7649C77.1647 49.0455 77.5077 49.1863 77.9543 49.1874ZM85.9403 51.2067L84.6165 48.6635L84.6065 48.6634L84.6003 51.2034L82.3804 51.1981L82.3974 44.1181L85.6974 44.1261C86.2707 44.1274 86.7605 44.232 87.1667 44.4396C87.5728 44.6406 87.8755 44.918 88.0746 45.2718C88.2805 45.619 88.3829 46.0125 88.3818 46.4525C88.3807 46.9259 88.2463 47.3455 87.9788 47.7116C87.7179 48.0776 87.3406 48.34 86.8469 48.4988L88.3803 51.2125L85.9403 51.2067ZM84.61 47.1834L85.49 47.1856C85.7034 47.1861 85.8635 47.1398 85.9704 47.0467C86.0773 46.947 86.131 46.7938 86.1315 46.5871C86.1319 46.4004 86.0756 46.2536 85.9625 46.1467C85.8561 46.0398 85.6996 45.9861 85.4929 45.9856L84.6129 45.9835L84.61 47.1834ZM94.6566 44.1476L94.6524 45.9076L92.7724 45.9031L92.7595 51.2231L90.5396 51.2177L90.5524 45.8978L88.6924 45.8933L88.6966 44.1333L94.6566 44.1476ZM99.7842 50.17L97.4242 50.1643L97.0716 51.2335L94.7416 51.2279L97.3487 44.1541L99.9087 44.1603L102.472 51.2465L100.132 51.2409L99.7842 50.17ZM99.2482 48.4987L98.613 46.5272L97.9682 48.4956L99.2482 48.4987ZM105.2 49.5731L107.34 49.5782L107.336 51.2582L102.976 51.2477L102.993 44.1677L105.213 44.1731L105.2 49.5731Z" fill="white"/>
</svg>
